<?xml version="1.0" encoding="utf-8"?>
<svg width="630" height="437.78" viewBox="0 0 630 437.78" fill="none" xmlns="http://www.w3.org/2000/svg">
  <path d="M305.114 2.98834C282.13 5.5184 257.109 14.889 239.846 27.4455C230.342 34.3797 214.34 50.4034 208.618 58.7432C199.114 72.7054 192.035 89.1976 188.349 106.346C185.537 118.809 185.343 140.736 187.865 153.854C189.998 165.287 194.944 179.624 200.375 190.025C211.916 212.046 232.185 232.286 254.587 244.093C301.914 269.019 356.999 265.083 400.059 233.785C426.243 214.669 445.155 184.59 450.876 152.917C453.107 140.548 452.331 113.561 449.519 102.691C439.336 63.897 414.121 32.9742 378.82 15.7323C369.51 11.2344 353.411 6.17433 343.131 4.39393C332.366 2.61352 314.424 1.95758 305.114 2.98834ZM337.312 6.17433C346.719 7.48621 360.684 10.9533 363.012 12.4526C364.176 13.2023 363.982 13.6708 361.654 15.3575C360.102 16.482 351.374 23.4162 342.161 30.7252L325.48 44.1251L321.892 43.0944C319.37 42.3447 317.819 42.3447 316.073 43.0944C313.843 44.0314 313.067 43.4692 302.205 32.2245C295.901 25.6651 288.919 18.4498 286.688 16.1071C284.36 13.7645 282.518 11.4219 282.518 10.8596C282.518 9.64145 292.992 7.11139 303.078 5.89322C312.776 4.67504 327.905 4.76875 337.312 6.17433ZM297.453 28.7574C307.927 39.721 312.388 45.1559 312 46.093C308.994 52.6524 312.388 58.5558 319.177 58.6495L323.153 58.7432L337.991 78.4214C346.137 89.1976 355.835 101.848 359.424 106.439C363.012 111.031 365.921 115.154 365.921 115.529C365.921 116.56 363.788 117.778 352.344 123.588C347.301 126.211 336.051 131.927 327.517 136.425C318.886 140.829 309.575 145.14 306.86 145.983C303.078 147.014 301.526 148.045 300.362 150.2C297.647 155.354 300.556 160.882 306.666 162.194C309.091 162.663 311.612 165.38 320.146 176.344L330.717 189.931L328.875 192.18C326.353 195.366 326.644 200.333 329.553 203.05C330.814 204.362 332.366 205.393 332.948 205.393C333.53 205.393 333.918 209.422 333.918 216.637C333.918 222.822 333.627 227.882 333.239 227.788C332.56 227.788 321.019 213.639 281.063 163.694C276.505 158.071 272.82 153.011 272.82 152.449C272.82 151.043 328.196 122.932 330.814 122.932C331.881 122.932 334.112 121.807 335.76 120.495C340.706 116.466 339.736 109.344 333.918 107.002C332.366 106.346 330.135 106.065 329.069 106.346C327.614 106.721 326.256 105.877 323.929 102.972C319.564 97.6311 302.108 76.1725 286.591 57.0565C274.08 41.6888 273.79 41.2203 274.371 37.6594C274.953 34.4735 274.662 33.6301 272.044 31.1C270.104 29.2259 268.165 28.2889 266.225 28.2889C263.025 28.2889 258.273 31.4749 258.273 33.6301C258.273 34.8483 257.497 35.0357 253.714 34.5672C251.096 34.1923 247.314 33.7238 245.18 33.5364C243.047 33.2553 244.695 33.7238 248.865 34.6609C255.266 36.0664 256.624 36.6287 258.176 39.065C259.145 40.5643 260.6 42.4384 261.473 43.1881C262.928 44.3125 263.122 48.9041 263.122 92.8521V141.204L259.824 143.734C257.206 145.702 256.333 147.201 256.139 149.825L255.848 153.292L229.663 167.536C206.388 180.279 201.054 182.903 201.054 181.591C201.054 181.404 203.672 170.815 206.776 157.978C217.153 115.716 222.584 92.7584 222.196 92.4773C222.002 92.1962 217.056 111.312 211.334 134.926C199.114 185.058 200.084 181.404 199.114 180.467C197.175 178.593 191.356 159.196 189.998 150.013C183.985 110.562 196.981 72.0494 226.075 43.2818L235.094 34.3797L234.609 39.065L234.124 43.7503L235.676 38.3154C236.84 34.1923 237.616 32.9742 238.973 32.9742C239.943 32.9742 240.719 32.5056 240.622 31.8497C240.04 29.3196 262.54 16.5757 274.759 12.4526C278.736 11.1407 280.384 10.9533 281.257 11.7967C281.839 12.3589 289.209 19.9491 297.453 28.7574ZM367.958 17.2316C369.219 18.9183 374.553 26.0399 379.983 32.9742C393.658 50.5908 393.367 50.1223 392.009 52.9335C390.845 55.3698 387.839 56.4006 381.535 56.4006C378.044 56.4006 328.099 50.1223 327.614 49.6538C327.42 49.4664 327.032 48.3419 326.644 47.03C326.159 44.8748 327.129 43.844 336.536 36.535C342.258 32.1308 350.986 25.2903 355.738 21.3547C360.587 17.419 364.758 14.233 365.145 14.233C365.533 14.233 366.794 15.6386 367.958 17.2316ZM376.395 17.8875C389.488 24.2595 401.707 32.8805 411.89 42.7196C422.364 53.0272 422.364 52.7461 413.054 54.0579C408.884 54.7139 408.399 54.5265 405.683 51.7153C402.968 48.9041 402.386 48.7167 398.313 49.1852L393.949 49.6538L385.996 39.1587C368.443 16.482 366.891 14.233 367.861 14.233C368.443 14.233 372.225 15.9197 376.395 17.8875ZM269.91 32.9742C272.432 35.4105 272.335 37.2846 269.425 40.0021C266.613 42.8133 266.031 42.907 262.734 40.3769C259.63 38.0343 259.436 34.5672 262.346 32.5993C265.255 30.6315 267.583 30.7252 269.91 32.9742ZM284.748 59.3992C324.704 108.314 324.51 108.032 323.347 110.469C321.795 113.655 321.989 116.56 323.929 119.183C324.801 120.402 325.189 121.526 324.607 121.713C324.123 121.901 312.388 127.898 298.52 135.113C273.402 148.138 273.305 148.138 272.044 146.077C271.268 144.859 269.425 143.266 267.874 142.329L265.061 140.829L265.255 92.7584L265.546 44.7811L267.971 44.1251C269.328 43.7503 270.686 43.4692 270.977 43.3755C271.268 43.2818 277.475 50.5908 284.748 59.3992ZM323.929 47.5922C325.383 49.8412 325.383 50.3097 324.123 52.5586C321.601 56.8691 313.552 55.6509 313.552 50.8719C313.552 45.437 320.825 43.0944 323.929 47.5922ZM363.982 55.7446L372.225 56.8691L372.516 83.2941C372.71 109.251 372.71 109.719 370.673 110.75C369.607 111.312 368.152 111.593 367.473 111.406C366.794 111.125 363.497 107.189 360.102 102.691C356.708 98.0996 347.786 86.2927 340.221 76.5473C332.657 66.7082 326.256 58.2747 325.868 57.7125C325.48 57.1502 325.868 55.3698 326.644 53.8705L328.099 51.0594L341.87 52.8398C349.532 53.8705 359.424 55.1824 363.982 55.7446ZM403.162 53.2146C406.653 56.4943 404.035 62.0229 398.992 62.0229C395.5 62.0229 394.046 60.4299 394.046 56.6817C394.046 52.0901 399.768 49.9349 403.162 53.2146ZM424.595 56.7754C433.129 67.5516 441.663 84.9808 445.349 99.1304C447.482 107.564 449.713 121.339 449.131 123.025C448.937 123.681 442.924 115.716 435.747 105.502C428.571 95.2884 418.97 81.42 414.315 74.8606C406.265 63.3348 405.974 62.6789 406.944 59.8677C407.623 58.181 408.205 56.6817 408.302 56.4943C408.593 56.1195 418 54.1516 421.394 53.6831C421.782 53.5894 423.237 54.995 424.595 56.7754ZM392.494 61.4607C393.27 62.7726 394.919 63.9907 395.985 64.3656C397.925 64.9278 397.925 65.3026 397.731 136.8L397.44 208.579L387.354 216.825C381.826 221.323 376.88 224.79 376.492 224.509C376.007 224.227 375.619 202.3 375.619 175.782V127.523L379.014 124.431C383.184 120.589 383.572 116.466 379.983 113.093C378.723 111.781 377.171 110.75 376.589 110.75C375.91 110.75 375.619 102.316 375.619 84.9808V59.2118H383.281C390.263 59.2118 391.039 59.3992 392.494 61.4607ZM426.922 94.7262C438.657 111.687 448.355 126.118 448.355 126.68C448.355 127.711 441.081 139.799 411.89 187.776C406.556 196.491 401.998 203.519 401.61 203.519C401.125 203.519 400.834 172.596 400.834 134.832C400.834 64.9278 400.931 63.897 404.326 63.897C404.908 63.897 415.091 77.7655 426.922 94.7262ZM334.112 110.469C336.827 113.655 336.924 115.435 334.403 117.872C332.56 119.652 331.396 120.027 329.747 119.558C326.45 118.621 325.189 117.309 325.189 114.686C325.189 109.719 331.008 107.002 334.112 110.469ZM376.201 113.374C377.462 114.123 379.499 117.684 379.499 119.09C379.499 120.776 375.716 123.869 373.68 123.869C371.158 123.869 367.861 120.683 367.861 118.246C367.861 114.498 373.195 111.406 376.201 113.374ZM371.643 126.68C372.419 126.68 372.71 136.332 372.71 160.882V195.085L360.393 195.179C344.392 195.366 344.682 195.366 341.579 192.18C340.124 190.587 337.991 189.463 336.633 189.463C333.724 189.463 332.56 188.244 321.407 173.252L312.485 161.257L314.521 158.821C316.849 156.01 317.043 152.168 315.006 149.544C314.231 148.607 313.552 147.483 313.552 147.201C313.552 146.827 324.607 141.017 338.088 134.176C351.471 127.429 362.915 121.432 363.4 120.964C363.982 120.495 365.533 121.432 367.473 123.4C369.122 125.181 371.061 126.68 371.643 126.68ZM447.967 151.231C443.894 175.688 432.838 198.084 416.157 215.513L412.375 219.448L406.556 214.669C403.453 211.952 400.834 209.328 400.834 208.86C400.834 207.923 407.429 196.959 437.105 148.326L448.84 129.116L449.131 135.676C449.325 139.236 448.743 146.264 447.967 151.231ZM268.165 146.077C270.298 147.951 270.492 152.261 268.456 153.854C267.68 154.51 265.934 154.979 264.576 154.979C261.279 154.979 259.242 153.199 259.242 150.294C259.242 145.327 264.479 142.797 268.165 146.077ZM310.254 148.982C310.836 149.357 311.903 150.668 312.582 151.887C313.552 153.761 313.455 154.417 311.903 156.572C310.836 157.884 309.091 159.102 307.927 159.289C305.502 159.664 301.914 156.478 301.914 153.854C301.914 150.106 307.248 147.014 310.254 148.982ZM260.212 156.853L263.122 158.915V184.028V209.141L260.794 210.172C259.533 210.734 257.885 212.327 257.206 213.732C256.527 215.044 255.848 216.262 255.751 216.45C255.654 216.637 248.865 212.608 240.719 207.642C232.476 202.675 220.45 195.366 213.952 191.43C207.358 187.495 202.024 184.121 202.024 183.84C202.024 183.559 211.722 178.124 223.65 171.846C235.482 165.568 247.411 159.196 250.029 157.696C255.945 154.323 256.624 154.229 260.212 156.853ZM289.597 179.061C297.744 189.088 310.06 204.268 317.043 212.795C324.026 221.323 330.523 229.475 331.396 230.881L333.142 233.504H348.562C363.885 233.504 364.079 233.504 364.854 235.66C366.018 238.564 370.77 240.439 374.94 239.689C377.462 239.22 378.626 239.501 379.79 240.813C381.438 242.5 381.147 242.687 374.94 245.499C361.751 251.308 345.07 255.994 337.797 255.994C335.178 255.9 327.129 251.871 303.369 238.752L272.432 221.51L272.626 217.762C272.917 214.482 272.529 213.732 269.522 211.296L266.031 208.672V183.747C266.031 158.915 266.031 158.727 268.262 157.322C270.783 155.541 268.94 153.667 289.597 179.061ZM232.864 203.987C248.187 213.17 256.333 218.605 256.333 219.636C256.333 221.135 261.57 226.008 263.219 226.008C263.704 226.008 264.091 230.225 264.091 235.378C264.091 242.969 263.8 244.749 262.637 244.749C261.861 244.749 257.885 242.875 253.908 240.532C238.779 231.911 225.687 220.667 215.698 207.829C209.685 200.051 202.024 188.057 202.024 186.277C202.024 185.433 201.539 185.152 232.864 203.987ZM338.961 193.867C342.452 196.959 339.93 202.581 334.887 202.581C331.493 202.581 330.038 200.988 330.038 197.24C330.038 192.649 335.275 190.587 338.961 193.867ZM372.225 211.671V223.197L369.51 224.04C368.055 224.602 366.115 226.289 365.145 227.788L363.497 230.693H350.695H337.797V218.511V206.236L340.997 203.05L344.101 199.864L358.163 200.051L372.225 200.239V211.671ZM407.138 216.356L411.696 220.292L408.011 223.759C403.065 228.257 394.919 234.254 388.13 238.471L382.699 241.844L380.662 239.783C379.014 238.096 378.82 237.346 379.693 235.941C380.274 234.91 380.856 232.474 380.856 230.599C380.953 227.413 381.729 226.476 390.457 219.074C396.664 213.826 400.446 211.202 401.222 211.671C401.901 212.139 404.52 214.201 407.138 216.356ZM268.165 213.545C273.014 217.762 267.098 225.258 261.57 221.791C258.854 220.104 258.467 216.169 260.891 213.639C262.831 211.577 265.837 211.483 268.165 213.545ZM296.095 235.753C309.188 242.875 322.959 250.465 326.644 252.62L333.433 256.462L327.129 257.118C313.067 258.617 288.143 255.057 272.626 249.247L265.061 246.529V236.222C265.061 226.289 265.158 225.914 267.389 225.071C268.65 224.602 270.007 223.759 270.395 223.197C271.171 221.885 268.165 220.386 296.095 235.753ZM376.589 228.725C378.723 232.567 376.395 237.253 372.419 237.253C368.055 237.253 365.048 230.974 368.055 228.069C369.994 226.195 375.425 226.664 376.589 228.725Z" fill="#11FFCE" stroke="#11FFCE" stroke-width="3" />
  <path d="M227.455 66.2305C224.37 79.7821 221.871 92.021 222.007 93.4443C222.098 94.3931 224.66 84.0336 227.819 70.0259C230.904 56.4742 233.404 44.2354 233.267 42.8121C233.176 41.8632 230.614 52.2228 227.455 66.2305Z" fill="#11FFCE" stroke="#11FFCE" stroke-width="2" />
  <path d="M427.989 354.385C427.989 392.148 427.989 392.804 429.929 392.804C431.868 392.804 431.868 392.148 431.868 354.385C431.868 316.621 431.868 315.965 429.929 315.965C427.989 315.965 427.989 316.621 427.989 354.385Z" fill="#11FFCE" />
  <path d="M569.387 319.526C567.157 319.995 566.09 324.024 567.738 325.898C569.775 328.334 572.975 327.116 573.266 323.837C573.557 320.651 572.006 318.87 569.387 319.526Z" fill="#11FFCE" />
  <path d="M131.228 322.525C131.228 324.211 132.004 324.399 143.641 324.586L155.958 324.867L156.249 358.789L156.443 392.804H158.867H161.292L161.486 358.789L161.777 324.867L173.705 324.586C184.761 324.399 185.537 324.211 185.537 322.525C185.537 320.744 184.761 320.651 158.382 320.651C132.004 320.651 131.228 320.744 131.228 322.525Z" fill="#11FFCE" />
  <path d="M0.303589 358.226V392.898L5.44357 392.616L10.4866 392.335L10.7775 380.06L11.0685 367.691L16.9843 367.878L22.9971 367.972L30.3676 380.341L37.6412 392.804H43.654H49.6668L43.3631 382.215C39.8718 376.499 36.2835 370.596 35.4106 369.19C33.859 366.66 33.9559 366.566 38.3201 362.631C45.5936 355.978 47.8242 349.606 45.8846 340.61C44.9148 336.299 43.848 334.519 39.7748 330.49C33.374 324.211 30.6586 323.462 13.6869 323.462H0.303589V358.226ZM29.0099 334.519C30.1737 335.081 32.3073 336.862 33.665 338.548C38.3201 343.89 36.1865 353.354 29.4948 356.727C27.5552 357.664 23.9669 358.133 18.8269 358.133H11.0685L10.7775 346.701C10.5836 339.485 10.8745 334.894 11.5534 334.332C12.9111 333.02 26.3914 333.113 29.0099 334.519Z" fill="#11FFCE" />
  <path d="M91.4655 348.013C91.4655 369.659 91.2716 373.032 89.7199 375.843C87.1984 380.716 83.4161 382.965 77.8882 382.965C73.815 382.965 72.6513 382.496 69.7418 379.779C67.7052 377.905 66.0566 375.187 65.6686 373.407C65.0868 370.408 64.8928 370.315 60.3347 370.315C56.0675 370.315 55.5826 370.502 55.5826 372.376C55.5826 379.123 60.7226 386.807 67.4143 390.087C78.6641 395.615 91.6595 391.867 98.2542 381.278C100.679 377.343 100.679 377.249 100.97 350.449L101.261 323.462H96.4116H91.4655V348.013Z" fill="#11FFCE" />
  <path d="M206.097 340.422C197.175 344.733 192.811 353.448 192.908 367.035C192.908 379.498 196.69 386.807 205.418 391.211C213.855 395.428 235.482 393.554 235.482 388.587C235.482 387.369 234.997 386.807 234.027 387.088C233.252 387.275 230.439 388.025 227.724 388.775C222.099 390.368 212.207 389.805 208.134 387.744C202.412 384.933 198.92 379.404 197.66 370.97L196.981 366.566H217.541H238.198L237.519 360.101C236.549 349.606 233.252 343.796 226.269 340.329C221.032 337.705 211.625 337.799 206.097 340.422ZM224.329 344.264C226.075 345.483 228.306 347.45 229.275 348.762C231.409 351.48 233.446 360.944 232.282 362.068C231.797 362.537 223.844 362.724 214.534 362.631L197.66 362.35L197.951 359.538C198.823 352.792 203.672 345.951 209.297 343.515C213.952 341.547 220.644 341.922 224.329 344.264Z" fill="#11FFCE" />
  <path d="M266.322 339.954C260.6 341.922 254.005 349.137 252.066 355.415C250.029 361.787 250.126 371.439 252.066 377.905C253.23 381.559 254.878 384.183 258.176 387.275C263.316 392.336 267.486 393.741 276.699 393.647C285.136 393.647 289.694 392.054 290.082 389.15C290.373 387.275 290.179 386.994 288.628 387.65C287.658 388.025 284.069 388.775 280.578 389.243C266.031 391.492 256.721 383.996 255.557 369.19C254.684 357.758 258.66 348.669 266.322 344.827C270.201 342.765 277.087 342.297 287.367 343.327C288.918 343.515 289.888 343.046 290.082 342.016C290.761 338.642 274.468 337.237 266.322 339.954Z" fill="#11FFCE" />
  <path d="M318.498 339.954C316.655 340.704 313.455 343.046 311.418 345.201L307.733 349.043V344.264C307.733 339.86 307.539 339.392 305.599 339.392H303.369V365.91V392.335L306.084 392.616L308.703 392.898V374.344C308.703 356.915 308.8 355.415 310.933 351.573C313.455 346.513 318.013 343.421 323.832 342.578C333.142 341.266 339.639 344.733 341.579 351.948C342.161 354.385 342.646 364.036 342.646 374.438V392.804H345.07H347.495V373.313C347.495 362.631 347.01 352.323 346.525 350.449C345.167 345.951 341.191 341.359 337.118 339.766C332.948 338.08 322.668 338.173 318.498 339.954Z" fill="#11FFCE" />
  <path d="M375.716 340.891C369.994 343.702 365.727 349.043 363.885 355.79C362.236 361.506 363.206 375.562 365.63 380.622C370.673 391.492 382.408 396.177 395.5 392.71C401.513 391.117 408.011 384.277 410.047 377.436C412.666 368.909 411.793 357.102 408.011 350.074C403.938 342.297 398.313 339.017 388.324 338.642C381.923 338.361 380.274 338.642 375.716 340.891ZM395.597 343.983C403.55 347.45 407.235 356.071 406.362 368.722C405.489 380.997 400.349 388.025 391.136 389.524C381.729 391.024 374.649 387.65 370.479 379.498C368.152 375.094 367.667 373.032 367.667 366.847C367.667 362.818 368.152 357.758 368.831 355.509C372.225 344.639 384.832 339.298 395.597 343.983Z" fill="#11FFCE" />
  <path d="M463.484 339.86C456.986 342.109 450.779 349.231 448.937 356.634C447.482 362.256 448.161 373.594 450.295 379.029C452.816 385.401 459.023 391.305 465.036 392.804C471.339 394.491 480.456 393.46 485.596 390.555C493.063 386.338 496.845 378.373 496.942 366.473C497.136 348.481 488.602 338.361 473.473 338.455C470.079 338.548 465.618 339.111 463.484 339.86ZM479.583 343.14C484.626 344.546 489.669 350.449 491.124 356.727C492.772 363.755 491.802 375.468 489.281 380.341C485.596 387.275 478.322 390.742 469.691 389.618C459.896 388.306 454.271 381.091 453.398 368.815C452.137 349.418 463.096 338.736 479.583 343.14Z" fill="#11FFCE" />
  <path d="M520.606 339.767C516.435 341.734 514.787 343.234 512.459 346.888C508.095 353.822 510.908 366.754 517.405 370.221L519.733 371.439L516.532 374.531C512.653 378.28 512.168 383.059 515.272 385.776C517.793 388.025 517.696 388.775 514.884 389.431C511.586 390.18 506.737 395.896 505.962 400.019C504.507 407.422 509.356 413.888 518.084 416.23C522.642 417.449 533.31 417.449 539.42 416.137C549.021 414.169 555.034 407.984 555.034 400.113C555.034 389.993 549.7 386.338 534.668 386.245C529.625 386.151 523.903 385.682 522.06 385.026C519.248 384.089 518.569 383.433 518.375 380.81C518.084 378.373 518.666 377.155 521.091 375C523.515 372.751 524.679 372.376 527.394 372.845C531.564 373.501 539.032 371.72 542.717 369.19C548.73 364.973 550.767 355.509 547.275 347.919C544.851 342.953 544.851 343.14 547.663 343.14C552.027 343.14 556.004 341.922 556.004 340.704C556.004 339.767 554.549 339.392 550.476 339.392C547.372 339.392 540.099 339.204 534.183 338.923C525.94 338.455 522.836 338.736 520.606 339.767ZM538.644 344.358C546.403 349.325 545.918 362.162 537.868 367.222C534.28 369.565 525.455 369.378 521.381 367.035C513.332 362.443 513.235 348.856 521.285 344.077C525.94 341.36 534.28 341.453 538.644 344.358ZM540.584 390.93C549.215 392.429 552.318 397.958 548.73 405.361C546.306 410.233 540.584 412.763 530.983 413.232C522.351 413.7 516.048 412.107 512.944 408.828C508.968 404.611 510.617 395.428 515.757 392.804C520.8 390.18 531.758 389.337 540.584 390.93Z" fill="#11FFCE" />
  <path d="M603.039 339.111C599.451 339.86 592.856 342.39 592.856 342.953C592.953 345.576 594.602 345.764 600.518 344.077C615.744 339.485 623.89 343.796 623.89 356.54V361.6L614.774 362.256C603.524 363.006 596.736 364.88 592.371 368.534C584.128 375.562 585.971 388.4 595.766 392.242C604.009 395.428 613.998 393.741 620.205 388.119C622.435 386.057 624.375 384.37 624.569 384.37C624.666 384.37 624.86 386.245 624.86 388.587C624.86 392.523 625.054 392.804 627.381 392.804H630L629.515 371.439C629.127 351.761 628.933 349.887 626.897 346.139C624.084 340.891 618.944 338.455 610.798 338.548C607.597 338.642 604.106 338.83 603.039 339.111ZM623.89 370.971C623.793 380.622 619.332 386.994 610.895 389.149C600.712 391.773 592.856 387.463 592.856 379.31C592.856 370.408 601.003 366.098 618.362 365.723L623.89 365.629V370.971Z" fill="#11FFCE" />
  <path d="M567.641 366.098V392.804H570.066H572.49V366.098V339.392H570.066H567.641V366.098Z" fill="#11FFCE" />
  <path d="M345.846 654.899C346.719 655.086 348.077 655.086 348.756 654.899C349.337 654.618 348.659 654.43 347.01 654.43C345.458 654.43 344.876 654.618 345.846 654.899Z" fill="black" />
  <path d="M193.392 741.014C193.392 742.045 193.683 742.326 193.974 741.576C194.265 740.921 194.168 740.077 193.877 739.796C193.586 739.421 193.295 739.983 193.392 741.014Z" fill="black" />
</svg>