<svg width="50" height="50" viewBox="0 0 50 50" fill="none" xmlns="http://www.w3.org/2000/svg">
<path d="M25 0.446289C11.4464 0.446289 0.446411 11.4463 0.446411 24.9999C0.446411 38.5534 11.4464 49.5534 25 49.5534C38.5536 49.5534 49.5536 38.5534 49.5536 24.9999C49.5536 11.4463 38.5536 0.446289 25 0.446289ZM43.3169 17.9284L36.4911 20.7521C35.2388 17.4128 32.6116 14.761 29.2478 13.5333L32.0714 6.70745C37.2277 8.67174 41.3281 12.7722 43.3169 17.9284ZM25 32.3659C20.9241 32.3659 17.6339 29.0758 17.6339 24.9999C17.6339 20.924 20.9241 17.6338 25 17.6338C29.0759 17.6338 32.3661 20.924 32.3661 24.9999C32.3661 29.0758 29.0759 32.3659 25 32.3659ZM17.9531 6.6829L20.8259 13.5088C17.4375 14.7365 14.7611 17.4128 13.5089 20.8012L6.68302 17.953C8.67186 12.7722 12.7723 8.67174 17.9531 6.6829ZM6.68302 32.0467L13.5089 29.2231C14.7611 32.6115 17.4129 35.2633 20.8013 36.4909L17.9286 43.3168C12.7723 41.328 8.67186 37.2275 6.68302 32.0467ZM32.0714 43.3168L29.2478 36.4909C32.6116 35.2387 35.2634 32.5869 36.4911 29.1985L43.3169 32.0713C41.3281 37.2275 37.2277 41.328 32.0714 43.3168Z" fill="#025064"/>
</svg>
