<svg width="51" height="46" viewBox="0 0 51 46" fill="none" xmlns="http://www.w3.org/2000/svg">
<path d="M26.5045 40.5608C26.0954 40.9698 25.3683 41.038 24.8911 40.5608C24.4821 40.1518 24.4139 39.4247 24.8911 38.9475L32.5943 31.2443L29.3903 28.0404L21.6871 35.7435C21.2554 36.198 20.5283 36.1752 20.0738 35.7435C19.5966 35.2663 19.6648 34.5392 20.0738 34.1302L27.7769 26.427L24.573 23.2231L16.8698 30.9262C16.4608 31.3352 15.7337 31.4034 15.2565 30.9262C14.8248 30.4945 14.8248 29.7673 15.2565 29.3129L22.9596 21.6097L19.733 18.4057L12.0298 26.1089C11.6208 26.5179 10.8937 26.5861 10.4165 26.1089C9.98473 25.6544 9.98473 24.95 10.4165 24.4955L20.3692 14.5428L24.6184 18.7693C26.7771 20.928 30.5037 20.9053 32.6624 18.7693C34.8893 16.5424 34.8893 12.9522 32.6624 10.7253L28.4359 6.49882L29.0722 5.86257C30.8446 4.09017 33.7304 4.09017 35.5028 5.86257L45.1374 15.4972C46.9098 17.2696 46.9098 20.1554 45.1374 21.9278L26.5045 40.5608ZM48.3414 25.1545C51.8862 21.6097 51.8862 15.8608 48.3414 12.2932L38.7068 2.65861C35.162 -0.886203 29.413 -0.886203 25.8455 2.65861L25.2092 3.29486L24.573 2.65861C21.0282 -0.886203 15.2792 -0.886203 11.7117 2.65861L3.66769 10.7026C0.441007 13.9293 0.145606 18.9511 2.75877 22.4959L6.05362 19.2011C5.16742 17.4968 5.46282 15.3381 6.89438 13.9066L14.9384 5.86257C16.7108 4.09017 19.5966 4.09017 21.369 5.86257L29.4585 13.952C29.8675 14.361 29.9356 15.0882 29.4585 15.5654C28.9813 16.0425 28.2541 15.9744 27.8451 15.5654L20.3692 8.11216L7.18978 21.2689C4.96291 23.473 4.96291 27.086 7.18978 29.3129C8.07598 30.1991 9.21214 30.7444 10.4165 30.9035C10.5755 32.0851 11.0982 33.2212 12.0071 34.1302C12.916 35.0391 14.0522 35.5617 15.2338 35.7208C15.3928 36.9024 15.9155 38.0385 16.8244 38.9475C17.7333 39.8564 18.8695 40.379 20.0511 40.5381C20.2101 41.7651 20.7555 42.8786 21.6417 43.7648C22.7097 44.8328 24.1412 45.4236 25.6637 45.4236C27.1861 45.4236 28.6177 44.8328 29.6857 43.7648L48.3414 25.1545Z" fill="#025064"/>
</svg>
