<svg width="50" height="50" viewBox="0 0 50 50" fill="none" xmlns="http://www.w3.org/2000/svg">
<path d="M44.6042 24.1251L25.8542 5.37508C25.1042 4.62508 24.0625 4.16675 22.9167 4.16675H8.33334C6.04167 4.16675 4.16667 6.04175 4.16667 8.33342V22.9167C4.16667 24.0626 4.625 25.1042 5.39584 25.8751L24.1458 44.6251C24.8958 45.3751 25.9375 45.8334 27.0833 45.8334C28.2292 45.8334 29.2708 45.3751 30.0208 44.6043L44.6042 30.0209C45.375 29.2709 45.8333 28.2292 45.8333 27.0834C45.8333 25.9376 45.3542 24.8751 44.6042 24.1251ZM27.0833 41.6876L8.33334 22.9167V8.33342H22.9167V8.31258L41.6667 27.0626L27.0833 41.6876Z" fill="#025064"/>
<path d="M13.5417 16.6667C15.2676 16.6667 16.6667 15.2676 16.6667 13.5417C16.6667 11.8159 15.2676 10.4167 13.5417 10.4167C11.8158 10.4167 10.4167 11.8159 10.4167 13.5417C10.4167 15.2676 11.8158 16.6667 13.5417 16.6667Z" fill="#025064"/>
</svg>
