<svg width="50" height="50" viewBox="0 0 50 50" fill="none" xmlns="http://www.w3.org/2000/svg">
<path d="M40 25H30V28.75H40V25Z" fill="#025064"/>
<path d="M40 32.5H30V36.25H40V32.5Z" fill="#025064"/>
<path d="M45 12.5H32.5V5C32.5 2.25 30.25 0 27.5 0H22.5C19.75 0 17.5 2.25 17.5 5V12.5H5C2.25 12.5 0 14.75 0 17.5V45C0 47.75 2.25 50 5 50H45C47.75 50 50 47.75 50 45V17.5C50 14.75 47.75 12.5 45 12.5ZM22.5 12.5V5H27.5V12.5V17.5H22.5V12.5ZM45 45H5V17.5H17.5C17.5 20.25 19.75 22.5 22.5 22.5H27.5C30.25 22.5 32.5 20.25 32.5 17.5H45V45Z" fill="#025064"/>
<path d="M17.5 32.5C19.5711 32.5 21.25 30.8211 21.25 28.75C21.25 26.6789 19.5711 25 17.5 25C15.4289 25 13.75 26.6789 13.75 28.75C13.75 30.8211 15.4289 32.5 17.5 32.5Z" fill="#025064"/>
<path d="M22.7 35.45C21.1 34.75 19.35 34.375 17.5 34.375C15.65 34.375 13.9 34.75 12.3 35.45C10.9 36.05 10 37.4 10 38.925V40H25V38.925C25 37.4 24.1 36.05 22.7 35.45Z" fill="#025064"/>
</svg>
